<svg xmlns="http://www.w3.org/2000/svg" width="400" height="224" fill="none"><path fill="#FFDD09" d="M245.15 86.1H206.4l35.91-56.55h-45.24l-42.4 84.82h33.36l-33.37 79.16L245.15 86.1Z"/><path fill="#fff" d="M208.4 29.55h-11.32l-42.4 84.82h11.3l42.41-84.82Z"/><path fill="#FD9808" d="m231.01 86.1-67.85 80.57-11.31 26.86L242.32 86.1h-11.3Z"/><path fill="#000" d="M154.67 196.36c-.56 0-1.13 0-1.41-.29-1.13-.84-1.7-2.26-1.13-3.39l31.66-75.49h-29.12c-.84 0-1.97-.56-2.54-1.41a2.57 2.57 0 0 1 0-2.83l42.4-84.82a2.97 2.97 0 0 1 2.55-1.4h45.24c1.13 0 1.98.56 2.54 1.4.57.85.57 1.98 0 2.83l-33.08 52.3h33.37c1.13 0 1.98.57 2.54 1.7a3.03 3.03 0 0 1-.28 3.11l-90.47 107.44c-.57.56-1.42.85-2.27.85Zm4.53-84.82h28.84c.84 0 1.7.56 2.26 1.13.56.85.56 1.7.28 2.55l-26.01 62.2 74.64-88.5h-32.8a2.97 2.97 0 0 1-2.54-1.41 2.57 2.57 0 0 1 0-2.83l33.36-52.3h-38.45l-39.58 79.16Z"/></svg>