<svg xmlns="http://www.w3.org/2000/svg" width="400" height="224" fill="none"><path fill="#EDC755" d="M217.32 103.22h8.9c1.4 3.8 2.76 7.63 4.12 11.45a5380.7 5380.7 0 0 0 2.04 5.7l4.04 11.28a40.13 40.13 0 0 0 1.28-3.17l.5-1.33a12820974877226.07 12820974877226.07 0 0 1 1.58-4.23l1.4-3.76 1.57-4.22.1-.28 1.05-2.8 1.88-5.07.14-.38.62-1.66.2-.56.18-.48c.14-.35.14-.35.28-.5h2.27a939.14 939.14 0 0 1 2.81 0h2.8c1.25 3.38 2.48 6.76 3.7 10.14 1.05 2.9 2.1 5.8 3.18 8.68.96 2.61 1.9 5.23 2.83 7.85l.13.36.24.67c.14.48.14.48.41.88l.34-.9.3-.83.87-2.38 1.76-4.77.62-1.7.16-.44 2.05-5.58.1-.3.88-2.4c1.13-3.1 2.27-6.19 3.42-9.27h8.3c-.32 1.47-.32 1.47-.53 2.03l-.14.38-.15.4a156.5 156.5 0 0 1-.52 1.37l-.75 2-.39 1.03-1.87 5.05-.48 1.33-.33.9-2.06 5.58-.2.53a8063.16 8063.16 0 0 1-4.52 12.27l-.64 1.74-.62 1.7-.48 1.3-.18.5-.16.43-.14.39c-.12.28-.12.28-.26.43l-.85.02h-1.75l-1.6-.01h-1.64l-3.2-.01-.3-.8a103.7 103.7 0 0 0-.66-1.75l-1.16-3.1-.69-1.83-.14-.38-1.92-5.13-1.16-3.07-.12-.34-3.76-9.99c-.24.35-.38.62-.53 1l-.13.35-.14.38-.15.4-.5 1.3-.36.94-.93 2.44-.53 1.4-2.78 7.33-1.09 2.86-.18.46c-.95 2.51-1.92 5.02-2.89 7.53h-9.04c-1.17-3.01-1.17-3.01-1.63-4.29l-.16-.44-.34-.92-.91-2.51-.2-.52-1.87-5.12-.33-.9-.65-1.76-1.47-4.01-.82-2.24-.33-.89-.16-.45-.66-1.78-.33-.9-.81-2.21-1.55-4.2-.73-2-.35-.95-.49-1.32-.15-.4-.13-.36-.12-.32c-.1-.28-.17-.58-.24-.87ZM109.73 91.12h37.76v8.16h-28v15.45h24.79v8.17H119.5v19.68h-9.77V91.12ZM319.8 107.3l.4.33c4 3.44 5.89 8.6 6.29 13.75.1 1.54.01 3.04-.13 4.58H295.6c1.18 3.52 2.64 5.98 5.94 7.72a14.47 14.47 0 0 0 6.64 1.36h.52c3.87-.05 7.2-1.4 9.94-4.12.55.22.87.56 1.26 1l.2.22c.53.6 1.04 1.23 1.54 1.86.46.54.94 1.06 1.43 1.57.34.37.62.7.82 1.18-3.15 3.83-7.87 5.73-12.7 6.28-5.26.51-10.64-.18-15.3-2.78l-.3-.17a17.61 17.61 0 0 1-4.31-3.43 18.55 18.55 0 0 1-4.57-8.65l-.07-.3a22.04 22.04 0 0 1 .15-10.07 19.7 19.7 0 0 1 4.15-8.14l.27-.34c3-3.53 7.72-5.7 12.27-6.22l.35-.05c5.68-.66 11.56.73 15.97 4.42Zm-21.63 6.48c-.64.73-1.14 1.5-1.6 2.37l-.13.26c-.52 1.06-.68 2.08-.98 3.28h22.16c-.57-2.41-1.14-4.17-2.77-5.98l-.27-.3a10.17 10.17 0 0 0-6.57-3.08c-3.82-.15-7.1.64-9.84 3.45ZM209.18 107.95l.7.66.3.27c3.46 3.25 5.18 8.14 5.4 12.8.17 5.83-1.44 10.97-5.35 15.35-4.04 4.22-9.7 6.03-15.43 6.16-5.15.05-10.42-1.46-14.37-4.84l-.44-.37c-3.83-3.3-5.88-8.09-6.36-13.05-.37-5.54.92-11 4.62-15.24a69.28 69.28 0 0 1 .87-.97c7.59-7.98 22.02-7.9 30.06-.77Zm-23.06 6.2c-2.7 3.04-3.3 6.7-3.06 10.64a12.3 12.3 0 0 0 4.32 8.05 12.05 12.05 0 0 0 8.82 2.24c2.8-.4 5.46-1.63 7.27-3.87 2.4-3.3 3.1-6.98 2.55-11-.1-.48-.21-.93-.37-1.4l-.16-.48a11.72 11.72 0 0 0-5.47-6.43c-4.6-2.17-10.32-1.44-13.9 2.25ZM64.87 69.79l.4-.02a142.04 142.04 0 0 1 2.8-.07c2.81-.11 2.81-.11 3.55.48.37.4.66.79.93 1.26l.44.58c.7-.14 1.4-.27 2.08-.46.8-.19 1.3-.23 2.02.2l.68.45c1.08.72 1.08.72 2.21 1.33 1.6.8 1.6.8 1.9 1.65.18.98.2 1.96.15 2.95l.26.06a362.07 362.07 0 0 1 1.58.39l.4.1.36.08c.32.1.32.1.75.4.13.27.13.27.24.62l.12.4a419.73 419.73 0 0 1 1.21 4.1l.13.41c.2.76.26 1.2-.13 1.9l-.4.58-.32.46-.6.78a1.8 1.8 0 0 0-.4.95c.13.35.13.35.33.71a10538.95 10538.95 0 0 0 .65 1.27l.2.42.2.37c.13.66-.1 1.14-.35 1.75a757.15 757.15 0 0 1-.63 1.58l-.42 1.05-.29.72-.7 1.75a3219.56 3219.56 0 0 1-1.72.2c-.75.07-1.47.1-2.22.1l-.05.45-.16 1.26c-.05.36-.09.71-.11 1.07-.04.38-.1.66-.26 1-.26.16-.26.16-.6.27l-.4.15-.46.16-.84.34a91.37 91.37 0 0 1-1.89.73c-2.14.86-2.14.86-3.21.4l-.33-.15a47.28 47.28 0 0 0-1.31-.44l-.3.45c-.47.57-.47.57-1.74 1.59h-4.08v12.25h4.8v-3.5h8.6v3.64H69.5v2.92h-4.95v13.85h15.6v3.64h-6.86v3.2H52.14v-3.2H45v-3.64h15.9v-10.5h-3.22v-1.75h-6.7v-3.79h6.85v1.75h3.06a832.05 832.05 0 0 0 0-8.5 235.24 235.24 0 0 0 0-3.6c.11-2 .11-2-.71-3.75l-.6-.48-.44-.52-.29-.35-.48.16-.64.21-.32.11-.31.1-.29.1c-.7.11-1.23-.18-1.82-.52l-.47-.26-.98-.56c-1-.6-1-.6-2.05-1.06a2.8 2.8 0 0 1-1.24-.9c-.12-.45-.12-.45-.15-.95l-.03-.54c-.02-.82 0-1.63.03-2.45a321.55 321.55 0 0 1-1.73-.56l-.5-.16-.47-.15-.44-.14c-.36-.16-.36-.16-.65-.6l-.19-1.12-.04-.33a149.03 149.03 0 0 1-.35-2.45l-.04-.32c-.25-1.82-.25-1.82.28-2.57l.23-.35.26-.36.25-.36c.2-.3.41-.6.62-.88l-.38-.67c-.1-.19-.2-.38-.32-.56-.33-.6-.68-1.16-1.09-1.71-.22-.58.04-1.18.28-1.72l.3-.65.16-.35a298.57 298.57 0 0 1 1.49-3.2l.13-.28.74-1.5 4.09-.15c.3-.98.3-.98.55-1.97.2-.77.44-1.32 1.12-1.74.63-.34 1.3-.6 1.96-.86a141.62 141.62 0 0 0 1.65-.69c.84-.32 1.5-.42 2.33-.06l.33.14a228.63 228.63 0 0 0 1 .44l.29.13c.24.1.24.1.53.09.29-.33.55-.67.82-1.01l.43-.57.36-.46c.22-.23.45-.18.77-.19Zm.56 4.24-.46.76-.65.88-.51.72c-1.12-.08-2.06-.56-3.08-1l-.41-.19-.38-.16c-.43-.12-.67-.07-1.09.04l-.47.08a3.1 3.1 0 0 0-1.57.8 9.18 9.18 0 0 0-1.31 4.08h-.3l-1.39.06-.48.02-.92.04c-.33.02-.65.02-.98 0-.65.24-.84.61-1.16 1.2-.68 1.35-.68 1.35-.61 2.8.45.92 1.05 1.73 1.7 2.52.2.35.2.35.19.8-.14.46-.3.72-.6 1.1-1.28 1.56-1.28 1.56-1.65 3.47.12.92.12.92.65 1.65.66.28 1.32.5 2 .72l.41.15c.75.25.75.25 1.53.34l-.04.39c-.3 2.32-.3 2.32.27 4.49.7.66 1.61 1.08 2.58 1.1a8.94 8.94 0 0 0 2.2-.53c1.06-.37 1.06-.37 1.55-.2.27.28.27.28.55.65l.28.36c.34.44.34.44.53.78.36.56.63.9 1.28 1.12a11.2 11.2 0 0 0 1.93.1c1.33 0 2.23-.24 3.19-1.2.32-.36.61-.73.9-1.1.27-.33.27-.33.53-.57.73-.06 1.26.25 1.9.58 1.06.52 1.8.68 2.95.3 1.08-.37 1.08-.37 2-1.02.1-.36.1-.36.16-.77l.07-.47.08-.49.08-.48c.11-.68.2-1.33.2-2.02l.43-.02c1.37-.08 2.72-.22 4.08-.42l.52-1.2.15-.33.14-.33.14-.3c.16-.66-.13-1.21-.41-1.8a873.7 873.7 0 0 1-.62-1.29l-.2-.42-.19-.38c-.14-.44-.11-.66.03-1.1.21-.32.21-.32.48-.65a3235.94 3235.94 0 0 0 .87-1.13c.53-.69.53-.69.7-1.51-.08-.37-.19-.72-.3-1.08l-.02-.52c-.07-.62-.15-.89-.56-1.37-1.19-.55-2.51-.78-3.79-1.02l.01-.35c.12-2.13.12-2.13-.54-4.09a4.08 4.08 0 0 0-2.54-1.26c-.3.03-.58.09-.87.16l-.28.07c-.47.12-.93.26-1.4.39-.85.2-.85.2-1.23.12-.36-.3-.66-.63-.97-.98l-.25-.28c-.63-.7-.63-.7-.88-1.1-.21-.29-.21-.29-.56-.35-1.96-.19-1.96-.19-3.6.64ZM155.65 88.05h9.33v54.53h-9.33V88.05ZM358 102.78v8.9h-4.23c-3.16.67-5.64 1.71-7.43 4.47-1.49 2.42-1.77 5.12-1.78 7.9a123.23 123.23 0 0 1-.02 2.26v1.72a3495.18 3495.18 0 0 0-.1 14.55h-9.33v-39.36h8.9l.14 5.25 1.6-1.9c3.5-2.96 7.78-3.8 12.25-3.8Z"/><path fill="#EDC755" d="M67.59 80.75h1.28c3.58 0 3.58 0 4.5.88.3.37.54.78.79 1.18l.81.66c.83.83.87 1.68.88 2.8l-.03.74v.38c-.07 1.8-.36 3.12-1.67 4.44a4.88 4.88 0 0 1-3.74 1.43l-.94-.08c-.67-.03-1.31.03-1.97.08-4.23.33-4.23.33-5.92-.9-1.48-1.36-1.85-2.92-1.93-4.86l-.02-.4-.02-.37a5.31 5.31 0 0 1 1.28-3.9c1.94-2.13 4.01-2.2 6.7-2.08Zm-3.93 4.97c-.13.48-.15.9-.13 1.39l.01.37c.04.63.08 1.18.48 1.7.79.57 1.82.41 2.74.35.45-.02.89-.02 1.34-.02h1.44c.76-.02 1.3-.07 1.87-.58.5-.6.57-1.13.54-1.9l.01-.33c0-.65-.12-1.04-.57-1.52-.62-.59-1.15-.63-1.99-.61H65.7c-.95.02-1.51.35-2.04 1.15Z"/></svg>