<svg xmlns="http://www.w3.org/2000/svg" width="400" height="224" fill="none"><path fill="#fff" d="M292.79 153.06a17.21 17.21 0 0 0-2.34-5.16c.23-.84.4-1.68.52-2.53.75-5.43-1.13-10.39-4.67-14.23a16.32 16.32 0 0 0-6.15-4.33 82.23 82.23 0 0 0-1.56-43.22 82.64 82.64 0 0 0-2.77-7.6 83.33 83.33 0 0 0-33.28-38.48 82.23 82.23 0 0 0-42.83-11.94 82.59 82.59 0 0 0-80.4 101.47 16.29 16.29 0 0 0-5.57 4.1c-3.54 3.84-5.42 8.78-4.67 14.2.12.86.29 1.72.52 2.56a17.23 17.23 0 0 0-2.34 5.16 16.91 16.91 0 0 0 .66 11.14 16.38 16.38 0 0 0 .83 12.78 20.73 20.73 0 0 0 5.97 7.12c2.99 2.37 6.73 4.39 11.24 6.32a131.2 131.2 0 0 0 14.93 5.25c7.72 2 15.12 3.26 22.61 3.32 10.69.1 19.88-2.41 26.47-8.84a79.89 79.89 0 0 0 20.06-.06c6.57 6.47 15.8 9 26.52 8.9 7.5-.05 14.9-1.32 22.6-3.32 3-.8 9.57-2.95 14.95-5.24 4.51-1.94 8.25-3.96 11.26-6.33 2.49-2 4.53-4.23 5.95-7.12 1.98-3.96 2.33-8.5.85-12.78 1.37-3.27 1.73-7 .64-11.14Zm-7.66 10.86a10.32 10.32 0 0 1 .28 9.15c-2.03 4.59-7.07 8.2-16.85 12.08-6.08 2.42-11.66 3.96-11.7 3.97-8.05 2.09-15.33 3.15-21.63 3.15-10.43 0-18.2-2.88-23.12-8.56a77.5 77.5 0 0 1-25.17.14c-4.93 5.59-12.65 8.42-23 8.42-6.3 0-13.57-1.06-21.62-3.15-.05-.01-5.62-1.55-11.7-3.97-9.79-3.88-14.83-7.49-16.86-12.08a10.32 10.32 0 0 1 .73-9.93 11.6 11.6 0 0 1-1.57-9.38 10.5 10.5 0 0 1 3.54-5.56 11.54 11.54 0 0 1-1.57-4.37c-.49-3.37.63-6.74 3.14-9.48a10.42 10.42 0 0 1 7.8-3.3h.08a76.66 76.66 0 1 1 146.34.06 10.41 10.41 0 0 1 8.88 3.25c2.52 2.73 3.64 6.1 3.16 9.47a11.58 11.58 0 0 1-1.57 4.37 10.5 10.5 0 0 1 3.53 5.56 11.6 11.6 0 0 1-1.57 9.38c.17.25.32.51.45.78Z"/><path fill="#FF9D00" d="M284.68 163.14a11.6 11.6 0 0 0 1.57-9.38c-.6-2.28-1.85-4.19-3.53-5.55a11.54 11.54 0 0 0 1.56-4.38c.5-3.37-.63-6.73-3.14-9.47a10.42 10.42 0 0 0-8.89-3.26 76.66 76.66 0 1 0-146.35-.06h-.07c-3.07 0-5.84 1.18-7.8 3.31-2.51 2.75-3.63 6.11-3.14 9.48.22 1.55.75 3.04 1.56 4.37a10.5 10.5 0 0 0-3.53 5.56 11.63 11.63 0 0 0 1.57 9.38l-.45.78a10.32 10.32 0 0 0-.28 9.16c2.03 4.58 7.07 8.2 16.85 12.08 6.09 2.41 11.66 3.95 11.7 3.97 8.06 2.08 15.33 3.14 21.63 3.14 10.35 0 18.07-2.83 23-8.42a77.52 77.52 0 0 0 25.17-.14c4.92 5.69 12.68 8.56 23.12 8.56 6.3 0 13.58-1.06 21.62-3.14.05-.02 5.62-1.56 11.7-3.97 9.8-3.88 14.83-7.5 16.86-12.08a10.32 10.32 0 0 0-.73-9.94ZM183.41 175.1c-.42.74-.88 1.47-1.36 2.17a13.84 13.84 0 0 1-4.9 4.35c-3.72 2.03-8.42 2.74-13.2 2.74-7.56 0-15.3-1.77-19.65-2.9-.21-.05-26.6-7.5-23.26-13.85.56-1.07 1.49-1.5 2.65-1.5 4.7 0 13.27 7.01 16.96 7.01.82 0 1.4-.35 1.63-1.2 1.57-5.63-23.84-8-21.7-16.14.37-1.45 1.4-2.03 2.84-2.03 6.22 0 20.18 10.94 23.1 10.94.22 0 .39-.07.47-.2l.04-.07c1.37-2.26.58-3.9-8.8-9.66l-.9-.55c-10.34-6.25-17.6-10.02-13.47-14.5.48-.52 1.15-.75 1.97-.75.97 0 2.14.32 3.43.86 5.46 2.3 13.02 8.58 16.18 11.32l1.48 1.3s4 4.17 6.42 4.17c.56 0 1.03-.22 1.35-.77 1.72-2.89-15.93-16.26-16.93-21.78-.67-3.74.48-5.63 2.6-5.63 1.01 0 2.24.43 3.6 1.3 4.22 2.67 12.36 16.66 15.34 22.1 1 1.83 2.71 2.6 4.25 2.6 3.05 0 5.43-3.03.28-6.88-7.75-5.8-5.03-15.28-1.33-15.86.15-.03.31-.04.47-.04 3.37 0 4.85 5.8 4.85 5.8s4.35 10.92 11.82 18.38c6.77 6.77 7.72 12.33 3.77 19.27Zm24.16 1.28-.4.05-.65.07-1.05.1-.34.03-.3.03-.45.04-.49.03-.48.03-.11.01-.38.02-.16.01-.46.02-.53.03-.47.01-.32.01h-.62l-.3.01h-2.31l-.35-.01-.31-.01-.38-.01-.47-.02-.43-.02h-.11l-.4-.03c-.12 0-.23 0-.34-.02l-.27-.01-.98-.07-.35-.03-.43-.04-.51-.04a81.9 81.9 0 0 1-.85-.09h-.02c4.15-9.25 2.05-17.88-6.32-26.25-5.5-5.5-9.15-13.6-9.91-15.37-1.54-5.27-5.6-11.12-12.34-11.12-.57 0-1.14.05-1.7.13a11.27 11.27 0 0 0-7.39 4.73c-2-2.48-3.93-4.45-5.68-5.56-2.64-1.67-5.27-2.52-7.84-2.52-3.2 0-6.06 1.31-8.06 3.7l-.05.06-.11-.47v-.02c-.39-1.63-.7-3.26-.96-4.91v-.03l-.06-.38-.16-1.1-.07-.5-.06-.51-.05-.48v-.04c-.08-.65-.14-1.3-.2-1.96l-.02-.25-.03-.43-.03-.35v-.09l-.06-.98-.02-.52-.02-.45v-.13l-.02-.42-.01-.35-.01-.42v-.45l-.01-.44v-.44a68.74 68.74 0 0 1 137.49 0v.88l-.01.45-.01.37v.32l-.02.42-.02.49-.02.42v.1l-.03.45c-.05.97-.13 1.93-.22 2.89v.01l-.04.47-.05.38-.08.73-.04.36-.06.44-.06.47-.08.53-.06.42-.08.47-.08.47-.08.47a59.1 59.1 0 0 1-.45 2.33l-.1.46-.1.46a10.35 10.35 0 0 0-7.33-2.9c-2.56 0-5.2.84-7.84 2.52-1.75 1.1-3.68 3.08-5.68 5.55a11.29 11.29 0 0 0-7.38-4.72c-.56-.1-1.13-.14-1.7-.14-6.75 0-10.8 5.86-12.34 11.12-.77 1.78-4.42 9.88-9.92 15.38-8.37 8.34-10.48 16.94-6.4 26.15Zm70.97-18.51-.03.08a4.9 4.9 0 0 1-.96 1.55l-.13.13c-.06.08-.13.14-.2.21-1.22 1.21-3.08 2.27-5.18 3.25l-.73.32-.24.1a21.66 21.66 0 0 1-1 .43l-.5.21c-1.19.49-2.4.95-3.58 1.4l-.5.2-.5.2-1 .4-.47.19-.48.19-.23.1-.46.19c-3.48 1.5-5.98 3.01-5.46 4.9l.05.15a1.75 1.75 0 0 0 .36.6c.62.65 1.74.55 3.16.04l.6-.23.12-.05 1.02-.46.26-.13c1.74-.85 3.7-2 5.66-3.03a50.3 50.3 0 0 1 2.38-1.2c1.84-.88 3.58-1.5 4.98-1.5.65 0 1.23.14 1.72.45l.08.05a2.66 2.66 0 0 1 .85 1c.7 1.31.11 2.67-1.24 4-1.3 1.28-3.31 2.53-5.61 3.69l-.51.25c-6.83 3.36-15.78 5.88-15.9 5.92-2.39.61-5.8 1.43-9.64 2.03l-.56.1h-.1a61.84 61.84 0 0 1-2.62.35h-.08a62.2 62.2 0 0 1-4.86.38H237l-1.77.03h-.67c-.9-.01-1.8-.05-2.69-.12h-.06a27.94 27.94 0 0 1-3.26-.43l-.3-.05h-.02l-.94-.2-.54-.13-.1-.03-.27-.07-.05-.01-.28-.08-.3-.1h-.04l-.26-.08-.3-.1-.24-.08-.18-.06-.51-.2-.17-.06-.13-.05-.76-.32-.17-.09h-.03a14.08 14.08 0 0 1-.53-.25l-.03-.03-.17-.09c-.3-.15-.59-.32-.87-.5l-.16-.09-.23-.15-.2-.13-.22-.15-.13-.1a11 11 0 0 1-.4-.3l-.22-.16-.25-.2-.2-.19h-.01l-.22-.2-.2-.19h-.02a7.06 7.06 0 0 1-.21-.22l-.2-.21-.21-.22-.2-.22-.02-.02a7.71 7.71 0 0 1-.56-.7 15.5 15.5 0 0 1-.36-.5l-.1-.16a20.84 20.84 0 0 1-.94-1.46l-.02-.04-.18-.3-.09-.16-.1-.17-.05-.09-.03-.06-.18-.33-.08-.14-.08-.16-.08-.15c-.2-.41-.4-.82-.58-1.24l-.06-.16-.13-.3-.05-.15a15.62 15.62 0 0 1-.7-2.4l-.04-.14-.11-.73-.02-.14-.01-.15-.05-.58v-.14l-.01-.3c-.05-3.87 1.9-7.6 6.1-11.79 7.47-7.46 11.82-18.38 11.82-18.38s.12-.46.36-1.12l.1-.28c.15-.37.31-.73.49-1.09l.03-.07c.15-.3.32-.6.5-.88l.12-.2a9.23 9.23 0 0 1 .79-.98c.43-.45.93-.81 1.49-1l.07-.03a5.97 5.97 0 0 1 .3-.08h.03c.12-.03.24-.05.36-.05h.01l.2-.01a2.03 2.03 0 0 1 .47.04c.67.1 1.31.5 1.86 1.12a5.35 5.35 0 0 1 .88 1.31l.11.24a9.13 9.13 0 0 1 .79 3.55v.75c-.05 1.17-.3 2.34-.72 3.44l-.12.3a8.18 8.18 0 0 1-.67 1.35c-.15.25-.3.5-.48.74l-.1.15a13.86 13.86 0 0 1-2.88 2.9c-.54.4-1.06.85-1.53 1.34-1.36 1.43-1.68 2.7-1.37 3.65a2.37 2.37 0 0 0 .51.87l.05.05.05.05.16.14.05.04c.13.1.27.2.42.27l.13.07c.15.08.32.15.48.2l.14.04.06.02.08.02.07.02.08.01.08.02.07.01.16.02.05.01.1.01h.05l.1.01h.05l.1.01H235.9l.1-.01.13-.01.11-.02.09-.01c.36-.05.71-.15 1.05-.29l.15-.06.23-.11a4.38 4.38 0 0 0 1.06-.73l.12-.12.06-.06.13-.12c.28-.32.54-.67.74-1.05 1.78-3.23 3.64-6.41 5.58-9.54l.27-.43.27-.42.4-.65.14-.2c.45-.72.91-1.42 1.38-2.12l.28-.4c.55-.83 1.1-1.63 1.65-2.4l.28-.37c.6-.82 1.21-1.63 1.86-2.41l.25-.3.13-.16.25-.3.13-.13.24-.28.12-.13.36-.38.24-.24c.46-.47.97-.89 1.51-1.25l.13-.09.38-.22c2.14-1.22 3.91-1.31 4.94-.29.62.62.96 1.65.94 3.08v.26l-.02.2-.01.24-.02.21-.01.06-.02.2-.01.06a5.44 5.44 0 0 1-.08.49l-.02.13a5.57 5.57 0 0 1-.35 1.07 9.74 9.74 0 0 1-.76 1.37 18.9 18.9 0 0 1-1.21 1.7l-.15.18c-.5.63-1.02 1.25-1.56 1.85l-.17.19-.7.77-.17.2-.37.38-.37.4-.37.39-.38.4-.38.39-.77.8c-3.68 3.76-7.55 7.52-8.86 9.87-.1.15-.17.3-.24.47-.19.43-.27.79-.21 1.08.02.1.05.2.1.28a1.73 1.73 0 0 0 .42.48c.27.2.6.3.93.28h.2l.11-.02.09-.01h.04l.08-.02h.02l.09-.03h.03l.1-.03.1-.03a4.3 4.3 0 0 0 .83-.34l.13-.06c.28-.15.57-.31.84-.49l.13-.08.12-.08.12-.08.06-.04.17-.13c.17-.1.32-.22.47-.34l.02-.01.24-.2c.33-.25.65-.52.93-.77l.2-.17.01-.01.1-.09.62-.57.07-.07.17-.16.1-.1.04-.03v-.01l.12-.11.06-.07h.01l.03-.04.04-.03.01-.01.04-.03.18-.17.1-.09.17-.15.12-.1.07-.06.13-.12.19-.17.1-.08 1.43-1.23.22-.19.38-.31.38-.32c.5-.41 1.03-.86 1.6-1.31l.37-.3.98-.77.4-.31 1.02-.78c.78-.59 1.58-1.18 2.4-1.75l.34-.25.74-.5.22-.15 1.31-.86.22-.14.22-.13.66-.4.22-.13.43-.25.42-.25.09-.04.34-.19.42-.22.2-.1.2-.1.22-.11a19.63 19.63 0 0 1 1.77-.77l.37-.13.32-.1.04-.01.17-.05h.01l.35-.1a7.33 7.33 0 0 1 1.44-.19h.08l.3.02.13.01h.01l.13.03.13.02h.02l.12.03a2.33 2.33 0 0 1 .93.52l.02.02.05.05.04.04c.37.39.67.82.9 1.3l.03.08a3 3 0 0 1 .04 2.32c-.09.22-.19.44-.3.65-.29.47-.63.91-1 1.31l-.09.1-.37.37-.18.17-.19.17-.1.09a17.96 17.96 0 0 1-1.16.96 38.11 38.11 0 0 1-2.63 1.85c-.84.55-1.68 1.08-2.53 1.6-1.79 1.1-3.76 2.27-5.87 3.55l-.55.33-1.7 1.04-.26.17-.5.32-1.01.65-.27.18-.4.26-.12.08-.4.26-.2.15-.24.17-.23.15-1.05.77-.13.1a23.81 23.81 0 0 0-1.32 1.08l-.12.1-.19.18-.12.12-.06.06-.38.4-.06.07-.35.44-.04.07c-.08.12-.16.24-.22.36l-.05.09-.05.1-.03.06-.02.04-.01.05-.02.05c-.06.16-.1.32-.12.48v.05l-.01.06v.28a.3.3 0 0 0 0 .07v.05l.02.07c0 .02 0 .06.02.1 0 .03 0 .06.02.1l.02.1.06.19.05.11v.02l.04.08.05.1c.04.1.1.2.16.3l.06.1.06.11c0 .02.02.03.03.05l.02.02.03.02.02.02a.49.49 0 0 0 .18.07c.52.12 1.6-.31 3.02-1.06l.26-.14.44-.24.2-.12.47-.26.29-.16c1.89-1.09 4.15-2.49 6.48-3.85l.65-.38.45-.28a129.46 129.46 0 0 1 3.5-1.91l.44-.22.85-.42c.54-.25 1.09-.5 1.64-.73l.3-.13h.04a12.27 12.27 0 0 1 4.25-1.04 3.57 3.57 0 0 1 1 .11h.02a2.35 2.35 0 0 1 1.75 1.65l.08.27c.2.68.17 1.41-.05 2.09Z"/><path fill="#FFD21E" fill-rule="evenodd" d="M267.84 108.6v-.44a68.74 68.74 0 0 0-137.48 0v.14a9.8 9.8 0 0 0 0 .74v.33l.01.12V109.9l.02.35.01.42v.13l.03.43v.02l.02.5v.02l.03.51c0 .16.02.32.03.47v.03l.03.4v.04l.03.4v.02l.02.23c.06.65.12 1.3.2 1.96v.04l.05.48.06.5.05.34.02.16.16 1.11v.03l.05.34c.26 1.66.58 3.31.97 4.95v.02l.03.12.08.35.05-.06c2-2.39 4.86-3.7 8.06-3.7 2.57 0 5.2.85 7.84 2.52 1.75 1.11 3.69 3.08 5.68 5.56a11.28 11.28 0 0 1 7.38-4.73c.57-.09 1.14-.13 1.7-.13 6.75 0 10.81 5.85 12.35 11.12.76 1.78 4.41 9.88 9.92 15.36 8.38 8.37 10.48 17 6.33 26.25h.02a38.88 38.88 0 0 0 1.36.14h.06l.37.03.34.03 1 .07.25.02h.21l.13.02.4.02h.12l.42.02.48.02.38.01h.3l.09.01 1.6.02h.97l.3-.01H201l.31-.02.48-.01.53-.03c.15 0 .3 0 .45-.02h.17l.24-.02h.14l.1-.02.5-.03.48-.03.44-.04.31-.02.34-.03a57.6 57.6 0 0 0 1.7-.18l.4-.05c-4.09-9.2-1.97-17.8 6.37-26.14 5.5-5.5 9.15-13.6 9.91-15.38 1.54-5.26 5.6-11.12 12.35-11.12a11.28 11.28 0 0 1 9.09 4.86c1.99-2.47 3.92-4.45 5.67-5.56 2.64-1.67 5.28-2.52 7.84-2.52 2.83 0 5.39 1.03 7.32 2.9l.1-.45.1-.46.11-.5.18-.9.17-.93.03-.17a17.23 17.23 0 0 1 .13-.77l.01-.06.07-.41.06-.42.13-.92.01-.08.06-.44.04-.37.09-.72.03-.3v-.08l.05-.47v-.01l.04-.38c.06-.71.12-1.43.16-2.15l.02-.36.03-.45v-.1l.04-.9v-.13l.01-.3v-.04l.01-.29V109.5l.01-.08v-.81Zm-85.79 68.67c5.45-7.98 5.06-13.98-2.4-21.44-7.48-7.47-11.83-18.38-11.83-18.38s-1.62-6.34-5.32-5.76c-3.7.58-6.42 10.06 1.33 15.86 7.75 5.8-1.54 9.73-4.52 4.29-2.98-5.45-11.13-19.44-15.35-22.12-4.22-2.67-7.19-1.17-6.2 4.34.5 2.74 5.1 7.42 9.4 11.78 4.35 4.43 8.4 8.55 7.53 10-1.72 2.9-7.76-3.4-7.76-3.4s-18.94-17.23-23.06-12.74c-3.8 4.14 2.06 7.66 11.09 13.09l2.37 1.42c10.33 6.26 11.13 7.9 9.67 10.27-.54.88-4-1.2-8.26-3.75-7.25-4.36-16.81-10.1-18.16-4.96-1.17 4.45 5.86 7.17 12.25 9.64 5.31 2.06 10.17 3.95 9.46 6.5-.74 2.65-4.76.44-9.15-1.97-4.93-2.72-10.33-5.69-12.1-2.34-3.34 6.34 23.05 13.81 23.27 13.87 8.52 2.2 30.18 6.9 37.74-4.2Zm35.07 0c-5.44-7.98-5.05-13.98 2.42-21.44 7.47-7.47 11.81-18.38 11.81-18.38s1.63-6.34 5.33-5.76c3.7.58 6.41 10.06-1.34 15.86-7.75 5.8 1.55 9.73 4.53 4.29 2.98-5.45 11.12-19.44 15.34-22.12 4.22-2.67 7.2-1.17 6.2 4.34-.5 2.74-5.1 7.42-9.39 11.78-4.36 4.43-8.4 8.55-7.54 10 1.72 2.9 7.77-3.4 7.77-3.4s18.94-17.23 23.06-12.74c3.8 4.14-2.06 7.66-11.1 13.08l-2.36 1.43c-10.33 6.25-11.14 7.9-9.67 10.27.54.87 4-1.2 8.25-3.76 7.25-4.35 16.82-10.1 18.17-4.95 1.17 4.44-5.87 7.17-12.25 9.64-5.31 2.06-10.18 3.94-9.46 6.5.74 2.65 4.75.44 9.15-1.98 4.92-2.71 10.33-5.68 12.1-2.33 3.34 6.35-23.06 13.8-23.27 13.86-8.53 2.22-30.18 6.9-37.75-4.19Z" clip-rule="evenodd"/><path fill="#32343D" fill-rule="evenodd" d="M221.43 89.44c1.07.38 1.87 1.54 2.63 2.64 1.02 1.48 1.97 2.86 3.44 2.08a9.89 9.89 0 1 0-13.38-4.09c.68 1.28 2.19.68 3.77.04 1.25-.5 2.55-1.02 3.54-.67Zm-46.6 0c-1.08.38-1.87 1.54-2.63 2.64-1.03 1.48-1.98 2.86-3.44 2.08a9.9 9.9 0 1 1 13.37-4.09c-.68 1.28-2.18.68-3.77.04-1.25-.5-2.54-1.02-3.53-.67Zm39.39 42.41c7.38-5.82 10.1-15.32 10.1-21.17 0-4.63-3.11-3.17-8.1-.7l-.28.13c-4.57 2.27-10.66 5.29-17.34 5.29-6.69 0-12.78-3.02-17.35-5.29-5.14-2.54-8.37-4.14-8.37.57 0 6.04 2.89 15.95 10.81 21.7a17.21 17.21 0 0 1 10.5-8.87c.79-.23 1.6 1.13 2.44 2.52.8 1.35 1.63 2.72 2.46 2.72.9 0 1.77-1.35 2.62-2.68.9-1.38 1.77-2.73 2.61-2.46a17.2 17.2 0 0 1 9.9 8.24Z" clip-rule="evenodd"/><path fill="#FF323D" d="M214.22 131.85c-3.85 3.03-8.96 5.06-15.62 5.06-6.26 0-11.15-1.79-14.91-4.52a17.2 17.2 0 0 1 10.5-8.88c1.55-.46 3.2 5.24 4.9 5.24 1.83 0 3.58-5.66 5.23-5.14a17.21 17.21 0 0 1 9.9 8.24Z"/><path fill="#FFAD03" fill-rule="evenodd" d="M157.16 97.67A6.42 6.42 0 1 1 150.03 87a6.42 6.42 0 0 1 7.14 10.68Zm92 0A6.42 6.42 0 1 1 242 87a6.42 6.42 0 0 1 7.14 10.67Z" clip-rule="evenodd"/></svg>