<svg xmlns="http://www.w3.org/2000/svg" width="54" height="28" fill="none" viewBox="0 0 46 24"><path fill="#B7B8BB" fill-rule="evenodd" d="m27.18 17.7 1.67-1.63.33.32a6.43 6.43 0 0 0 4.5 1.83A6.31 6.31 0 0 0 40.07 12a6 6 0 0 0-1.87-4.39 6.43 6.43 0 0 0-4.5-1.83 6.3 6.3 0 0 0-4.5 1.83l-10.7 10.41a8.77 8.77 0 0 1-6.18 2.49c-2.33 0-4.55-.9-6.18-2.49a8.4 8.4 0 0 1 0-12.04 8.77 8.77 0 0 1 6.18-2.49c2.34 0 4.56.9 6.19 2.49l.32.32-1.67 1.63-.33-.32a6.43 6.43 0 0 0-4.5-1.83A6.31 6.31 0 0 0 5.93 12a6 6 0 0 0 1.87 4.39 6.43 6.43 0 0 0 4.5 1.83 6.3 6.3 0 0 0 4.5-1.83l10.7-10.41a8.77 8.77 0 0 1 6.18-2.49c2.33 0 4.55.9 6.18 2.49a8.4 8.4 0 0 1 0 12.04 8.84 8.84 0 0 1-6.18 2.49c-2.34 0-4.56-.9-6.19-2.49l-.32-.32Zm-2.54 2.47 1.68-1.63.33.32c3.9 3.8 10.2 3.8 14.07 0a9.51 9.51 0 0 0 0-13.72A9.97 9.97 0 0 0 33.7 2.3c-2.68 0-5.15 1-7.04 2.85L15.96 15.55a5.23 5.23 0 0 1-7.3 0 4.96 4.96 0 0 1 0-7.1 5.23 5.23 0 0 1 7.3 0l.33.32-1.68 1.63-.32-.32A2.81 2.81 0 0 0 9.52 12c0 .73.3 1.4.82 1.92a2.81 2.81 0 0 0 3.95 0L24.97 3.51A12.39 12.39 0 0 1 33.7 0c3.3 0 6.38 1.24 8.7 3.5A11.76 11.76 0 0 1 46 12c0 3.21-1.27 6.22-3.6 8.5a12.44 12.44 0 0 1-8.71 3.5 12.5 12.5 0 0 1-8.72-3.5l-.33-.33ZM21.36 3.83l-1.68 1.63-.33-.32a10.12 10.12 0 0 0-14.07 0 9.51 9.51 0 0 0 0 13.72 9.97 9.97 0 0 0 7.03 2.85c2.68 0 5.15-1 7.04-2.85L30.04 8.45a5.23 5.23 0 0 1 7.3 0 4.96 4.96 0 0 1 0 7.1 5.23 5.23 0 0 1-7.3 0l-.33-.32 1.68-1.63.32.32A2.81 2.81 0 0 0 36.48 12c0-.73-.3-1.4-.82-1.92a2.81 2.81 0 0 0-3.95 0L21.03 20.49A12.39 12.39 0 0 1 12.3 24c-3.3 0-6.38-1.24-8.71-3.5A11.76 11.76 0 0 1 0 12c0-3.21 1.27-6.22 3.6-8.5A12.39 12.39 0 0 1 12.31 0c3.3 0 6.39 1.24 8.72 3.5l.33.33Z" clip-rule="evenodd"/></svg>